<?xml version="1.0"?>
<svg version="1.1" xmlns="http://www.w3.org/2000/svg" width="400" height="200" style=""><path fill="#ffffff" d="M33.36,115.45c0,0.54-0.21,0.75-0.72,0.75l-2.37,0c-0.54,0-0.78-0.21-0.78-0.75l0-8.37l-8.52,0l0,8.37c0,0.54-0.24,0.75-0.75,0.75l-2.34,0c-0.54,0-0.81-0.21-0.81-0.75l0-19.29c0-0.51,0.33-0.72,0.81-0.72l2.34,0c0.48,0,0.75,0.18,0.75,0.72l0,7.83l8.52,0l0-7.83c0-0.51,0.3-0.72,0.78-0.72l2.37,0c0.48,0,0.72,0.18,0.72,0.72l0,19.29z M65.97,106.99c0,6.18-2.91,9.57-8.76,9.57c-6.33,0-8.64-3.48-8.64-9.63l0-10.77c0-0.51,0.3-0.72,0.78-0.72l2.37,0c0.51,0,0.72,0.21,0.72,0.72l0,10.44c0,4.41,1.14,6.69,4.92,6.69c3.63,0,4.77-2.4,4.77-6.69l0-10.44c0-0.51,0.27-0.72,0.75-0.72l2.37,0c0.51,0,0.72,0.21,0.72,0.72l0,10.83z M98.55,115.39c0,0.66-0.27,0.81-0.72,0.81l-2.01,0c-0.45,0-0.84-0.21-1.14-0.63l-9.78-13.38l-0.06,0l0,13.23c0,0.57-0.27,0.78-0.78,0.78l-2.16,0c-0.57,0-0.81-0.15-0.81-0.75l0-19.2c0-0.63,0.27-0.81,0.81-0.81l1.95,0c0.48,0,0.72,0.15,1.02,0.57l9.87,13.56l0.06,0l0-13.35c0-0.57,0.27-0.78,0.78-0.78l2.25,0c0.63,0,0.72,0.33,0.72,0.81l0,19.14z M128.7,96.19l-0.21,1.74c-0.06,0.51-0.39,0.63-0.93,0.63l-5.43,0l0,16.95c0,0.57-0.12,0.69-0.63,0.69l-2.64,0c-0.54,0-0.63-0.12-0.63-0.66l0-16.98l-5.61,0c-0.51,0-0.69-0.21-0.69-0.72l0-1.77c0-0.45,0.21-0.63,0.66-0.63l15.18,0c0.78,0,0.99,0.24,0.93,0.75z M154.47,115.48c0,0.48-0.21,0.72-0.72,0.72l-11.13,0c-0.6,0-0.81-0.15-0.81-0.81l0-19.2c0-0.48,0.21-0.75,0.69-0.75l11.31,0c0.48,0,0.63,0.18,0.63,0.51l0,0.18l-0.21,1.8c-0.06,0.54-0.39,0.63-1.02,0.63l-7.53,0l0,5.43l6.93,0c0.57,0,0.75,0.24,0.75,0.66l0,1.71c0,0.51-0.21,0.72-0.72,0.72l-6.96,0l0,6l8.04,0c0.51,0,0.75,0.21,0.75,0.69l0,1.71z M183.63,115.84c0,0.24-0.18,0.36-0.45,0.36l-2.73,0c-0.54,0-0.9-0.15-1.17-0.6l-4.32-7.05l-2.31,0l0,6.9c0,0.45-0.18,0.75-0.69,0.75l-2.46,0c-0.51,0-0.72-0.24-0.72-0.75l0-19.14c0-0.66,0.15-0.87,0.81-0.87l4.44,0c2.61,0,5.37,0.39,6.96,2.22c0.96,1.11,1.44,2.58,1.44,4.2c0,2.76-1.47,4.92-3.87,5.97l4.92,7.59c0.09,0.15,0.15,0.3,0.15,0.42z M178.5,101.92c0-2.61-1.74-3.54-4.35-3.54l-1.5,0l0,7.26l1.86,0c2.4,0,3.99-1.29,3.99-3.72z M210.78,97.72c0,0.48-0.09,0.84-0.33,1.35l-7.89,16.35c-0.33,0.66-0.66,0.78-1.32,0.78l-2.64,0c-0.36,0-0.6-0.21-0.6-0.54c0-0.15,0.03-0.3,0.12-0.48l8.16-16.44l-8.52,0c-0.6,0-0.78-0.33-0.78-0.84l0-1.65c0-0.51,0.15-0.81,0.75-0.81l12.21,0c0.6,0,0.84,0.24,0.84,0.81l0,1.47z"/><path fill="#" d=""/></svg>
